# xmcd CD database file
#
# Track frame offsets:
#	150
#	17052
#	36764
#	59137
#	83811
#	101998
#	123129
#	138107
#	156667
#	183961
#
# Disc length: 2692 seconds
#
# Revision: 1
# Processed by: cddbd v1.5PL3 Copyright (c) Steve Scherf et al.
# Submitted via: CDex 1.51
#
DISCID=860a820a
DTITLE=Shade Lounge Club - Fire Lounge
DYEAR=2004
DGENRE=Jazz
TTITLE0=Red Colour
TTITLE1=Back Forever
TTITLE2=Red Hair
TTITLE3=Be There
TTITLE4=I want You
TTITLE5=Red Lips
TTITLE6=Love
TTITLE7=Red Lounge
TTITLE8=All I ever had
TTITLE9=By Myself
EXTD=YEAR: 2004
EXTT0=
EXTT1=
EXTT2=
EXTT3=
EXTT4=
EXTT5=
EXTT6=
EXTT7=
EXTT8=
EXTT9=
PLAYORDER=
